HIERARCHY
ROOT hip
{
	OFFSET	0.00  0.00  0.00 
	CHANNELS 6 Xposition Yposition Zposition Xrotation Zrotation Yrotation
	JOINT abdomen
	{
		OFFSET	0.000000 1.799998 0.000000
		CHANNELS 3 Xrotation Zrotation Yrotation
		JOINT chest
		{
			OFFSET	0.000000 4.464001 -0.360000
			CHANNELS 3 Xrotation Zrotation Yrotation
			JOINT neck
			{
				OFFSET	0.000000 5.400002 -0.144000
				CHANNELS 3 Xrotation Zrotation Yrotation
				JOINT head
				{
					OFFSET	0.000000 1.655998 0.000000
					CHANNELS 3 Xrotation Zrotation Yrotation
					End Site
					{
						OFFSET 0.000000 1.656000 0.000000
					}
				}
			}
			JOINT lCollar
			{
				OFFSET	1.800000 3.528000 -0.432000
				CHANNELS 3 Yrotation Zrotation Xrotation
				JOINT lShldr
				{
					OFFSET	1.728000 0.000000 0.000000
					CHANNELS 3 Zrotation Yrotation Xrotation
					JOINT lForeArm
					{
						OFFSET	5.328000 0.000000 0.000000
						CHANNELS 3 Yrotation Zrotation Xrotation
						JOINT lHand
						{
							OFFSET	4.464000 0.000000 0.000000
							CHANNELS 3 Zrotation Yrotation Xrotation
						}
					}
				}
			}
			JOINT rCollar
			{
				OFFSET	-1.872000 3.528000 -0.432000
				CHANNELS 3 Yrotation Zrotation Xrotation
				JOINT rShldr
				{
					OFFSET	-1.656000 0.000000 0.000000
					CHANNELS 3 Zrotation Yrotation Xrotation
					JOINT rForeArm
					{
						OFFSET	-5.400000 0.000000 0.000000
						CHANNELS 3 Yrotation Zrotation Xrotation
						JOINT rHand
						{
							OFFSET	-4.392000 0.000000 0.000000
							CHANNELS 3 Zrotation Yrotation Xrotation
						}
					}
				}
			}
		}
	}
	JOINT lThigh
	{
		OFFSET	2.808000 -0.864002 0.720000
		CHANNELS 3 Xrotation Zrotation Yrotation
		JOINT lShin
		{
			OFFSET	-1.080000 -10.583999 0.000000
			CHANNELS 3 Xrotation Zrotation Yrotation
			JOINT lFoot
			{
				OFFSET	0.000000 -10.152000 -0.648000
				CHANNELS 3 Xrotation Yrotation Zrotation
				End Site
				{
					OFFSET 0.000000 -1.296000 2.448000
				}
			}
		}
	}
	JOINT rThigh
	{
		OFFSET	-2.808000 -0.864002 0.720000
		CHANNELS 3 Xrotation Zrotation Yrotation
		JOINT rShin
		{
			OFFSET	1.080000 -10.583999 0.000000
			CHANNELS 3 Xrotation Zrotation Yrotation
			JOINT rFoot
			{
				OFFSET	0.000000 -10.152000 -0.648000
				CHANNELS 3 Xrotation Yrotation Zrotation
				End Site
				{
					OFFSET 0.000000 -1.296000 2.448000
				}
			}
		}
	}
}
MOTION
Frames:     20
Frame Time: 0.033333
0.000000 23.112001 0.000000 0.000000 0.000000 0.000000 2.674883 0.000000 -2.912523 3.958022 0.017652 -4.446039 0.000000 0.000000 5.845740 18.618382 1.467965 -2.103291 1.434368 -2.999135 2.216748 -83.864861 -11.332812 6.990829 -78.007813 -5.000000 -20.000000 -13.007813 0.996094 -13.007777 23.994143 4.004159 -9.013226 68.017578 9.961515 19.006371 82.609947 -1.388005 -20.000000 1.992188 -1.092074 16.779699 0.000000 0.000000 0.000000 0.009766 0.000000 0.000000 -0.117188 0.000000 0.000000 -0.011676 -0.057406 -0.001188 0.028270 0.040973 0.016966 0.431288 0.129740 0.090099 
0.000000 23.112001 0.000000 0.000000 0.000000 0.000000 2.778157 0.000000 -3.026314 4.110061 0.017393 -4.618506 0.000000 0.000000 6.060715 18.194515 0.914282 -2.152077 1.486906 -3.108987 2.297943 -83.729172 -14.546980 7.076219 -72.673882 -5.000000 -20.000000 -12.359414 1.774089 -12.959159 23.994143 4.004159 -9.013226 68.017578 9.961515 19.006371 80.579681 -1.622625 -20.000000 1.992188 -0.559289 15.905502 0.000000 0.000000 0.000000 0.009766 0.000000 0.000000 -0.117188 0.000000 0.000000 -0.011676 -0.057406 -0.001188 0.028270 0.040973 0.016966 0.431288 0.129740 0.090099 
0.000000 23.112001 0.000000 0.000000 0.000000 0.000000 2.879523 0.000000 -3.138116 4.259237 0.017077 -4.787892 0.000000 0.000000 6.270534 17.073975 0.299234 -2.198734 1.538297 -3.216440 2.377365 -83.554871 -18.424612 7.321192 -67.339951 -5.000000 -20.000000 -11.711015 2.552083 -12.910541 23.994143 4.004159 -9.013226 68.017578 9.961515 19.006371 78.272469 -1.813560 -20.000000 1.992188 -0.264557 15.077940 0.000000 0.000000 0.000000 0.009766 0.000000 0.000000 -0.117188 0.000000 0.000000 -0.011676 -0.057406 -0.001188 0.028270 0.040973 0.016966 0.431288 0.129740 0.090099 
0.000000 23.112001 0.000000 0.000000 0.000000 0.000000 2.978660 0.000000 -3.247562 4.405083 0.016711 -4.953648 0.000000 0.000000 6.474564 15.093555 -0.332760 -2.242670 1.588395 -3.321190 2.454788 -83.339760 -22.804636 7.708957 -62.006020 -5.000000 -19.999998 -11.062615 3.330078 -12.861922 23.994143 4.004159 -9.013226 68.017578 9.961515 19.006371 75.833435 -1.955955 -20.000000 1.992188 -0.173871 14.301067 0.000000 0.000000 0.000000 0.009766 0.000000 0.000000 -0.117188 0.000000 0.000000 -0.011676 -0.057406 -0.001188 0.028270 0.040973 0.016966 0.431288 0.129740 0.090099 
0.000000 23.112001 0.000000 0.000000 0.000000 0.000000 3.075248 0.000000 -3.354288 4.547131 0.016303 -5.115227 0.000000 0.000000 6.672168 12.468558 -0.927786 -2.282724 1.637055 -3.422933 2.529990 -83.081650 -27.526039 8.222718 -56.672089 -5.000000 -19.999998 -10.414217 4.108073 -12.813304 23.994143 4.004159 -9.013226 68.017578 9.961515 19.006371 73.407761 -2.044953 -20.000000 1.992188 -0.253222 13.578936 0.000000 0.000000 0.000000 0.009766 0.000000 0.000000 -0.117188 0.000000 0.000000 -0.011676 -0.057406 -0.001188 0.028270 0.040973 0.016966 0.431288 0.129740 0.090099 
0.000000 23.112001 0.000000 0.000000 0.000000 0.000000 3.168964 0.000000 -3.457927 4.684914 0.015860 -5.272084 0.000000 0.000000 6.862713 9.508911 -1.431929 -2.315174 1.684132 -3.521367 2.602746 -82.778358 -32.427746 8.845684 -51.338158 -5.000000 -19.999998 -9.765818 4.886067 -12.764686 23.994143 4.004159 -9.013226 68.017578 9.961515 19.006371 71.140556 -2.075697 -20.000000 1.992188 -0.468603 12.915605 0.000000 0.000000 0.000000 0.009766 0.000000 0.000000 -0.117188 0.000000 0.000000 -0.011676 -0.057406 -0.001188 0.028270 0.040973 0.016966 0.431288 0.129740 0.090099 
0.000000 23.112001 0.000000 0.000000 0.000000 0.000000 3.259487 0.000000 -3.558115 4.817965 0.015389 -5.423669 0.000000 0.000000 7.045565 6.524544 -1.805572 -2.429757 1.729480 -3.616186 2.672829 -82.427719 -37.348694 9.561064 -46.004230 -5.000000 -19.999998 -9.117418 5.664062 -12.716067 23.994143 4.004159 -9.013226 68.017578 9.961515 19.006371 69.151268 -2.075697 -20.000000 1.992188 -0.786006 12.315126 0.000000 0.000000 0.000000 0.009766 0.000000 0.000000 -0.117188 0.000000 0.000000 -0.011676 -0.057406 -0.001188 0.028270 0.040973 0.016966 0.431288 0.129740 0.090099 
0.000000 23.112001 0.000000 0.000000 0.000000 0.000000 3.346497 0.000000 -3.654487 4.945816 0.014896 -5.569438 0.000000 0.000000 7.220087 3.793296 -2.066284 -2.544341 1.772955 -3.707089 2.740018 -82.027542 -42.127823 10.352062 -40.670303 -5.000000 -20.000000 -8.469020 6.442057 -12.667449 23.994143 4.004159 -9.013226 68.017578 9.961515 19.006371 67.456581 -2.075697 -20.000000 1.992188 -1.171424 11.781555 0.000000 0.000000 0.000000 0.009766 0.000000 0.000000 -0.117188 0.000000 0.000000 -0.011676 -0.057406 -0.001188 0.028270 0.040973 0.016966 0.431288 0.129740 0.090099 
0.000000 23.112001 0.000000 0.000000 0.000000 0.000000 3.429673 0.000000 -3.746676 5.068000 0.014390 -5.708843 0.000000 0.000000 7.385646 1.464647 -2.245931 -2.658924 1.814412 -3.793771 2.804087 -81.575623 -46.604111 11.201886 -35.336372 -5.000000 -20.000000 -7.820621 7.220052 -12.618831 23.994143 4.004159 -9.013226 68.017578 9.961515 19.006371 66.047432 -2.075697 -20.000000 1.992188 -1.590850 11.318946 0.000000 0.000000 0.000000 0.009766 0.000000 0.000000 -0.117188 0.000000 0.000000 -0.011676 -0.057406 -0.001188 0.028270 0.040973 0.016966 0.431288 0.129740 0.090099 
0.000000 23.112001 0.000000 0.000000 0.000000 0.000000 3.508693 0.000000 -3.834319 5.184052 0.013876 -5.841338 0.000000 0.000000 7.541607 -0.344013 -2.376379 -2.773507 1.853704 -3.875928 2.864812 -81.069771 -50.616489 12.093743 -30.002443 -5.000000 -20.000000 -7.172222 7.998046 -12.570212 23.994143 4.004159 -9.013226 68.017578 9.961515 19.006371 64.914787 -2.075697 -20.000000 1.992188 -2.010276 10.931354 0.000000 0.000000 0.000000 0.009766 0.000000 0.000000 -0.117188 0.000000 0.000000 -0.011676 -0.057406 -0.001188 0.028270 0.040973 0.016966 0.431288 0.129740 0.090099 
0.000000 23.112001 0.000000 0.000000 0.000000 0.000000 3.583237 0.000000 -3.917049 5.293503 0.013363 -5.966375 0.000000 0.000000 7.687335 -1.515295 -2.489495 -2.888091 1.890688 -3.953257 2.921969 -80.507813 -54.003906 13.010840 -29.419462 -5.000000 -20.000000 -6.951928 8.036416 -12.510655 23.994143 4.004159 -9.013226 68.017578 9.961515 19.006371 64.049591 -2.075697 -20.000000 1.992188 -2.395695 10.622833 0.000000 0.000000 0.000000 0.009766 0.000000 0.000000 -0.117188 0.000000 0.000000 -0.011676 -0.057406 -0.001188 0.028270 0.040973 0.016966 0.431288 0.129740 0.090099 
0.000000 23.112001 0.000000 0.000000 0.000000 0.000000 3.652983 0.000000 -3.994502 5.395888 0.012857 -6.083409 0.000000 0.000000 7.822196 -1.931809 -2.617145 -3.002674 1.925217 -4.025455 2.975333 -79.891319 -56.652126 13.936385 -28.836481 -5.000000 -20.000000 -6.731633 8.074786 -12.451098 23.994143 4.004159 -9.013226 68.017578 9.961515 19.006371 63.442791 -2.075697 -20.000000 1.992188 -2.713098 10.397443 0.000000 0.000000 0.000000 0.009766 0.000000 0.000000 -0.117188 0.000000 0.000000 -0.011676 -0.057406 -0.001188 0.028270 0.040973 0.016966 0.431288 0.129740 0.090099 
0.000000 23.112001 0.000000 0.000000 0.000000 0.000000 3.717610 0.000000 -4.066312 5.490739 0.012366 -6.191893 0.000000 0.000000 7.945556 -1.931809 -2.781541 -3.196555 1.957147 -4.092218 3.024680 -79.236885 -58.634247 14.853585 -28.253500 -5.000000 -19.999998 -6.511339 8.113155 -12.391541 23.994143 4.004159 -9.013226 68.017578 9.961515 19.006371 63.085346 -2.075697 -20.000000 1.992188 -2.928479 10.259235 0.000000 0.000000 0.000000 0.009766 0.000000 0.000000 -0.117188 0.000000 0.000000 -0.011676 -0.057406 -0.001188 0.028270 0.040973 0.016966 0.431288 0.129740 0.090099 
0.000000 23.112001 0.000000 0.000000 0.000000 0.000000 3.776798 0.000000 -4.132114 5.577589 0.011896 -6.291278 0.000000 0.000000 8.056781 -1.931809 -2.966285 -3.535312 1.986333 -4.153242 3.069785 -78.564888 -60.070160 15.745647 -27.670519 -5.000000 -19.999996 -6.291044 8.151525 -12.331984 23.994143 4.004159 -9.013226 68.017578 9.961515 19.006371 62.968212 -2.075697 -20.000000 1.992188 -3.007830 10.212266 0.000000 0.000000 0.000000 0.009766 0.000000 0.000000 -0.117188 0.000000 0.000000 -0.011676 -0.057406 -0.001188 0.028270 0.040973 0.016966 0.431288 0.129740 0.090099 
0.000000 23.112001 0.000000 0.000000 0.000000 0.000000 3.830224 0.000000 -4.191543 5.655970 0.011455 -6.381019 0.000000 0.000000 8.155235 -1.931809 -3.145325 -3.912432 2.012628 -4.208223 3.110425 -77.895691 -61.079777 16.595776 -27.087540 -5.000000 -19.999994 -6.070750 8.189896 -12.272427 23.994143 4.004159 -9.013226 68.017578 9.961515 19.006371 62.968212 -2.075697 -20.000000 1.992188 -3.007830 10.212266 0.000000 0.000000 0.000000 0.009766 0.000000 0.000000 -0.117188 0.000000 0.000000 -0.011676 -0.057406 -0.001188 0.028270 0.040973 0.016966 0.431288 0.129740 0.090099 
0.000000 23.112001 0.000000 0.000000 0.000000 0.000000 3.877568 0.000000 -4.244233 5.725415 0.011049 -6.460569 0.000000 0.000000 8.240285 -1.931809 -3.292610 -4.221404 2.035889 -4.256859 3.146373 -77.249649 -61.783020 17.387175 -26.504559 -5.000000 -19.999994 -5.850455 8.228265 -12.212870 23.994143 4.004159 -9.013226 68.017578 9.961515 19.006371 62.968212 -2.075697 -20.000000 1.992188 -3.007830 10.212266 0.000000 0.000000 0.000000 0.009766 0.000000 0.000000 -0.117188 0.000000 0.000000 -0.011676 -0.057406 -0.001188 0.028270 0.040973 0.016966 0.431288 0.129740 0.090099 
0.000000 23.112001 0.000000 0.000000 0.000000 0.000000 3.918510 0.000000 -4.289819 5.785458 0.010687 -6.529381 0.000000 0.000000 8.311294 -1.931809 -3.382085 -4.379625 2.055969 -4.298845 3.177407 -76.647118 -62.299812 18.103056 -25.921577 -5.000000 -19.999996 -5.630161 8.266634 -12.153312 23.994143 4.004159 -9.013226 68.017578 9.961515 19.006371 62.968212 -2.075697 -20.000000 1.992188 -3.007830 10.212266 0.000000 0.000000 0.000000 0.009766 0.000000 0.000000 -0.117188 0.000000 0.000000 -0.011676 -0.057406 -0.001188 0.028270 0.040973 0.016966 0.431288 0.129740 0.090099 
0.000000 23.112001 0.000000 0.000000 0.000000 0.000000 3.952727 0.000000 -4.327937 5.835631 0.010374 -6.586908 0.000000 0.000000 8.367627 -1.931809 -3.394091 -4.400149 2.072724 -4.333878 3.203301 -76.108467 -62.731117 18.726625 -25.338598 -5.000000 -19.999996 -5.409866 8.305004 -12.093754 23.994143 4.004159 -9.013226 68.017578 9.961515 19.006371 62.968212 -2.075697 -20.000000 1.992188 -3.007830 10.212266 0.000000 0.000000 0.000000 0.009766 0.000000 0.000000 -0.117188 0.000000 0.000000 -0.011676 -0.057406 -0.001188 0.028270 0.040973 0.016966 0.431288 0.129740 0.090099 
0.000000 23.112001 0.000000 0.000000 0.000000 0.000000 3.979899 0.000000 -4.358220 5.875468 0.010118 -6.632604 0.000000 0.000000 8.408650 -1.931809 -3.334524 -4.319940 2.086008 -4.361654 3.223831 -75.654068 -63.102135 19.241091 -24.755619 -5.000000 -19.999996 -5.189572 8.343374 -12.034197 23.994143 4.004159 -9.013226 68.017578 9.961515 19.006371 62.968212 -2.075697 -20.000000 1.992188 -3.007830 10.212266 0.000000 0.000000 0.000000 0.009766 0.000000 0.000000 -0.117188 0.000000 0.000000 -0.011676 -0.057406 -0.001188 0.028270 0.040973 0.016966 0.431288 0.129740 0.090099 
0.000000 23.112001 0.000000 0.000000 0.000000 0.000000 3.999706 0.000000 -4.380302 5.904500 0.009927 -6.665920 0.000000 0.000000 8.433730 -1.931809 -3.215672 -4.175961 2.095677 -4.381870 3.238773 -75.304283 -63.419117 19.629660 -24.172638 -5.000000 -19.999996 -4.969277 8.381743 -11.974640 23.994143 4.004159 -9.013226 68.017578 9.961515 19.006371 62.968212 -2.075697 -20.000000 1.992188 -3.007830 10.212266 0.000000 0.000000 0.000000 0.009766 0.000000 0.000000 -0.117188 0.000000 0.000000 -0.011676 -0.057406 -0.001188 0.028270 0.040973 0.016966 0.431288 0.129740 0.090099 
